<svg xmlns="http://www.w3.org/2000/svg" width="114" height="40" viewBox="0 0 114 40" fill="none"><path fill-rule="evenodd" clip-rule="evenodd" d="M7.69531 21.0173H15.3932V14.0811H7.69531V21.0173Z" fill="#2AFEBB"></path><path fill-rule="evenodd" clip-rule="evenodd" d="M7.69531 14.0808H15.3932V7.14453H7.69531V14.0808Z" fill="#19A284"></path><path fill-rule="evenodd" clip-rule="evenodd" d="M0 14.0812H7.69754V7.14453H0V14.0812Z" fill="#057260"></path><path fill-rule="evenodd" clip-rule="evenodd" d="M15.3945 14.0808H23.0924V7.14453H15.3945V14.0808Z" fill="#F37A26"></path><path fill-rule="evenodd" clip-rule="evenodd" d="M7.69531 7.14391H15.3936V0.208008H7.69531V7.14391Z" fill="#043A33"></path><path fill-rule="evenodd" clip-rule="evenodd" d="M15.3932 22.842V21.0166H7.69531V24.9278C7.78113 30.9764 11.2653 33.2201 19.5208 33.2201H24.2623V26.4402H19.4095C16.5643 26.4402 15.4543 25.4309 15.3932 22.842Z" fill="#043A33"></path><path fill-rule="evenodd" clip-rule="evenodd" d="M38.8213 24.9807L33.243 7.14453H24.8203L35.028 33.2206H27.3301V40.0001H36.8133C38.7096 40.0001 40.3829 38.8009 41.0522 37.0798L52.7664 7.14453H44.5667L38.8213 24.9807Z" fill="#043A33"></path><mask id="mask0_3010_20640" style="mask-type:alpha" maskUnits="userSpaceOnUse" x="54" y="0" width="29" height="34"><path fill-rule="evenodd" clip-rule="evenodd" d="M54.3281 0H82.6089V33.7417H54.3281V0Z" fill="white"></path></mask><g mask="url(#mask0_3010_20640)"><path fill-rule="evenodd" clip-rule="evenodd" d="M68.6081 26.8589C65.1494 26.8589 62.082 24.5641 62.082 20.2878C62.082 16.0634 65.094 13.7686 68.6081 13.7686C72.0667 13.7686 75.079 16.0111 75.079 20.2878C75.079 24.5121 72.1226 26.8589 68.6081 26.8589ZM71.3969 6.98865C67.1018 6.98865 63.5318 8.91807 62.3049 13.2467H62.026V0H54.3281V20.4438C54.3281 29.8833 61.0221 33.7421 68.4966 33.7421C77.6445 33.7421 82.6089 28.0055 82.6089 20.235C82.6089 13.6118 78.9835 6.98865 71.3969 6.98865Z" fill="#043A33"></path></g><path fill-rule="evenodd" clip-rule="evenodd" d="M99.0053 26.5456C95.4908 26.5456 92.3672 24.2507 92.3672 20.0264C92.3672 15.8545 95.4908 13.5596 99.0053 13.5596C102.743 13.5596 105.476 15.8545 105.476 20.0264C105.476 24.2507 102.743 26.5456 99.0053 26.5456ZM105.308 7.14487V12.1517H104.973C104.471 10.5346 102.463 6.62305 96.3268 6.62305C89.5215 6.62305 84.8359 11.8386 84.8359 20.2349C84.8359 28.4232 89.2986 33.742 95.9921 33.742C100.343 33.742 103.69 31.7086 105.029 28.1621H105.308V33.2209H113.005V7.14487H105.308Z" fill="#043A33"></path></svg>